<?xml version="1.0" standalone="no"?>
<!DOCTYPE svg PUBLIC "-//W3C//DTD SVG 20010904//EN"
 "http://www.w3.org/TR/2001/REC-SVG-20010904/DTD/svg10.dtd">
<svg version="1.0" xmlns="http://www.w3.org/2000/svg"
 width="1024.000000pt" height="1024.000000pt" viewBox="0 0 1024.000000 1024.000000"
 preserveAspectRatio="xMidYMid meet">

<g transform="translate(0.000000,1024.000000) scale(0.100000,-0.100000)"
fill="#000000" stroke="none">
<path d="M5705 8529 c-269 -45 -486 -221 -748 -609 -150 -223 -253 -398 -241
-409 5 -5 41 -32 79 -61 83 -64 235 -192 323 -272 34 -32 66 -58 70 -58 4 0
20 24 35 53 84 162 200 361 281 482 104 155 194 247 258 265 81 22 165 -10
261 -99 177 -163 532 -696 850 -1276 27 -49 52 -94 57 -100 7 -9 24 -41 118
-215 20 -36 55 -101 79 -145 86 -157 289 -574 306 -625 35 -109 16 -164 -63
-176 -23 -4 -38 -10 -33 -15 25 -25 388 -38 553 -19 141 16 189 30 228 67 32
30 34 36 29 75 -17 121 -140 391 -331 728 -42 73 -82 148 -163 300 -143 267
-247 456 -353 635 -46 77 -88 149 -94 160 -6 11 -25 40 -41 65 -16 25 -34 54
-40 65 -37 68 -246 379 -257 383 -4 2 -8 8 -8 13 0 19 -204 282 -290 373 -116
125 -154 160 -292 271 -36 30 -155 92 -207 109 -124 40 -259 53 -366 35z"/>
<path d="M3941 7428 c-209 -29 -439 -165 -661 -387 -249 -249 -514 -598 -800
-1051 -40 -63 -91 -144 -114 -180 -24 -36 -89 -141 -146 -235 -56 -93 -110
-181 -119 -195 -10 -14 -32 -52 -51 -85 -18 -33 -42 -70 -54 -83 l-21 -24 30
7 c35 9 488 156 695 227 216 74 223 79 300 206 86 143 311 477 406 605 149
198 166 218 304 360 202 208 329 260 458 187 28 -17 52 -35 52 -41 0 -11 -228
-443 -337 -638 -34 -62 -63 -115 -63 -116 0 -16 -324 -555 -376 -626 -40 -55
-57 -63 -194 -84 -448 -71 -1030 -219 -1380 -352 -238 -90 -405 -170 -405
-194 0 -19 61 -30 135 -23 36 3 155 19 265 34 363 52 736 88 1160 111 244 13
916 7 1150 -10 508 -38 1044 -117 1625 -241 660 -140 971 -188 1440 -225 734
-57 1380 55 1696 294 142 106 199 203 199 336 0 100 -18 139 -100 220 -126
125 -333 219 -565 255 -36 5 -68 10 -72 10 -5 0 8 -22 27 -48 96 -135 99 -248
7 -318 -152 -116 -666 -168 -1217 -123 -412 34 -665 73 -1480 227 -521 99
-824 135 -1268 148 -265 8 -246 -8 -162 138 82 143 155 275 197 354 21 40 79
147 128 237 50 90 90 169 90 175 0 5 6 10 13 10 16 0 195 -176 317 -310 260
-286 348 -372 423 -411 114 -59 466 -135 672 -146 131 -6 202 0 231 22 18 13
15 17 -46 82 -36 38 -83 89 -105 113 -23 25 -65 72 -95 105 -30 34 -91 101
-136 150 -45 50 -114 128 -155 175 -78 91 -117 133 -215 239 -33 36 -80 89
-104 116 -82 93 -454 460 -543 535 -337 284 -579 424 -807 466 -84 15 -136 16
-229 2z"/>
<path d="M7136 3750 c-21 -4 -42 -13 -47 -21 -5 -8 -9 -311 -9 -674 0 -571 2
-663 15 -682 30 -43 232 -40 249 3 10 26 7 1310 -3 1337 -16 42 -101 57 -205
37z"/>
<path d="M7635 3753 c-16 -2 -36 -12 -42 -21 -10 -12 -13 -164 -13 -681 1
-579 3 -669 16 -686 13 -18 26 -20 114 -20 74 1 104 5 115 15 11 12 14 54 16
203 1 104 6 190 11 193 21 13 55 -10 96 -64 23 -31 55 -70 70 -87 15 -16 43
-50 62 -75 46 -59 66 -83 116 -139 l42 -45 100 -1 c84 0 103 3 121 19 12 11
21 29 21 41 0 20 -64 106 -154 205 -23 25 -67 75 -98 110 -31 36 -70 81 -87
100 -17 19 -31 39 -31 43 0 5 72 85 161 179 152 161 161 172 155 202 -3 17
-14 37 -23 44 -21 15 -163 16 -195 1 -13 -6 -90 -89 -173 -185 -144 -166 -170
-192 -184 -178 -3 3 -7 185 -9 404 -2 340 -5 400 -18 411 -15 12 -136 21 -189
12z"/>
<path d="M2180 3593 c-42 -4 -92 -23 -102 -37 -4 -6 -8 -66 -8 -133 l0 -123
-53 0 c-87 0 -117 -39 -102 -135 5 -39 10 -45 40 -55 18 -6 51 -10 72 -8 l38
3 5 -280 5 -280 28 -57 c49 -99 128 -145 267 -155 96 -7 185 11 218 44 21 21
24 31 20 74 -8 76 -24 88 -116 82 -91 -5 -119 6 -145 57 -15 31 -17 63 -15
275 l3 240 110 3 c89 2 112 6 123 19 17 24 15 124 -4 151 -14 20 -23 22 -125
22 l-109 0 0 130 c0 173 -5 179 -150 163z"/>
<path d="M3225 3311 c-86 -23 -150 -67 -193 -135 l-26 -41 -12 68 c-7 38 -18
75 -25 83 -8 10 -35 14 -91 14 -131 0 -118 50 -118 -470 0 -385 2 -451 15
-464 32 -32 203 -33 235 -1 12 13 16 63 20 293 6 308 7 313 76 370 41 34 100
52 172 52 67 0 82 23 82 123 0 58 -4 77 -17 90 -22 19 -79 28 -118 18z"/>
<path d="M3847 3309 c-142 -15 -285 -107 -349 -224 -34 -64 -58 -172 -58 -265
0 -304 194 -489 512 -490 155 0 295 39 332 92 31 44 9 132 -37 143 -13 4 -52
-6 -92 -21 -58 -22 -87 -27 -170 -28 -91 -1 -105 2 -155 27 -65 33 -98 76
-115 152 -7 30 -12 55 -12 56 1 0 133 3 292 5 174 2 300 8 316 15 35 14 49 48
49 117 0 75 -22 159 -60 224 -88 157 -232 219 -453 197z m185 -190 c39 -28 67
-87 70 -150 l3 -54 -200 0 -200 0 4 40 c5 62 43 127 94 160 60 39 177 41 229
4z"/>
<path d="M5873 3310 c-265 -48 -405 -233 -391 -518 7 -129 34 -210 95 -287 90
-112 198 -164 355 -173 169 -8 282 28 389 127 91 82 132 179 145 336 7 94 -12
198 -50 278 -49 103 -167 194 -291 226 -60 15 -193 21 -252 11z m178 -191 c92
-31 130 -107 137 -271 6 -143 -12 -211 -71 -275 -85 -92 -238 -81 -309 22 -94
138 -68 434 44 504 50 31 138 40 199 20z"/>
<path d="M4486 3290 c-34 -11 -46 -26 -46 -60 0 -25 8 -47 110 -310 29 -74 64
-164 77 -200 13 -36 31 -81 39 -100 8 -19 34 -82 57 -140 55 -135 67 -143 212
-137 114 5 147 16 169 61 14 28 76 191 233 611 67 180 75 233 42 264 -19 18
-35 21 -102 21 -43 0 -87 -4 -97 -10 -12 -6 -31 -50 -55 -127 -20 -65 -68
-215 -106 -334 -38 -119 -69 -222 -69 -228 0 -7 -5 -11 -12 -9 -11 4 -48 106
-194 533 -62 180 -58 175 -152 174 -42 0 -90 -5 -106 -9z"/>
<path d="M6710 2623 c-58 -19 -80 -37 -99 -76 -27 -55 -26 -82 2 -137 26 -52
73 -80 135 -80 103 0 167 80 148 185 -14 72 -116 132 -186 108z"/>
</g>
</svg>
